%TF.GenerationSoftware,Altium Limited,Altium Designer,24.8.2 (39)*%
G04 Layer_Physical_Order=1*
G04 Layer_Color=255*
%FSLAX45Y45*%
%MOMM*%
%TF.SameCoordinates,B69ECBFA-4DE5-4BA9-8B5C-8610D7F659A7*%
%TF.FilePolarity,Positive*%
%TF.FileFunction,Copper,L1,Top,Signal*%
%TF.Part,Single*%
G01*
G75*
%TA.AperFunction,SMDPad,CuDef*%
%ADD10R,1.40000X0.95000*%
%ADD11R,1.70000X0.60000*%
%ADD12R,2.70000X1.00000*%
%ADD13R,1.00000X0.66000*%
%TA.AperFunction,Conductor*%
%ADD14C,0.30000*%
%ADD15C,0.50000*%
%TA.AperFunction,ViaPad*%
%ADD16C,0.70000*%
D10*
X1525000Y282500D02*
D03*
Y467500D02*
D03*
X825000Y282500D02*
D03*
Y467500D02*
D03*
D11*
X502500Y312500D02*
D03*
Y437500D02*
D03*
X1825000Y450000D02*
D03*
Y325000D02*
D03*
D12*
X182500Y127500D02*
D03*
Y622500D02*
D03*
X2145000Y635000D02*
D03*
Y140000D02*
D03*
D13*
X1305000Y470000D02*
D03*
Y280000D02*
D03*
X1045000D02*
D03*
Y375000D02*
D03*
Y470000D02*
D03*
D14*
X502500Y312500D02*
X645000D01*
X825000Y200000D02*
Y282500D01*
X950000Y375000D02*
X1045000D01*
X1525000Y200000D02*
Y282500D01*
X1825000Y450000D02*
X1975000D01*
D15*
X1692574Y325000D02*
X1825000D01*
X1675000Y342574D02*
Y425000D01*
Y342574D02*
X1692574Y325000D01*
X1632500Y467500D02*
X1675000Y425000D01*
X1525000Y467500D02*
X1632500D01*
X1305000Y470000D02*
X1522500D01*
X1525000Y467500D01*
X1045000Y280000D02*
X1047500Y277500D01*
X1154926D02*
X1172500Y295074D01*
Y452426D01*
X1047500Y277500D02*
X1154926D01*
X1045000Y470000D02*
X1154926D01*
X1172500Y452426D01*
X825000Y467500D02*
X827500Y470000D01*
X1045000D01*
X648750Y437500D02*
X678750Y467500D01*
X825000D01*
X502500Y437500D02*
X648750D01*
D16*
X1525000Y200000D02*
D03*
X950000Y375000D02*
D03*
X825000Y200000D02*
D03*
X645000Y312500D02*
D03*
X1975000Y450000D02*
D03*
%TF.MD5,dd215de150004fbacae951ea299c3120*%
M02*
