%TF.GenerationSoftware,Altium Limited,Altium Designer,24.8.2 (39)*%
G04 Layer_Color=8388736*
%FSLAX45Y45*%
%MOMM*%
%TF.SameCoordinates,B69ECBFA-4DE5-4BA9-8B5C-8610D7F659A7*%
%TF.FilePolarity,Negative*%
%TF.FileFunction,Soldermask,Top*%
%TF.Part,Single*%
G01*
G75*
%TA.AperFunction,SMDPad,CuDef*%
%ADD10R,1.40000X0.95000*%
%ADD11R,1.70000X0.60000*%
%ADD12R,2.70000X1.00000*%
%ADD13R,1.00000X0.66000*%
%TA.AperFunction,ViaPad*%
%ADD20C,0.90320*%
D10*
X1525000Y282500D02*
D03*
Y467500D02*
D03*
X825000Y282500D02*
D03*
Y467500D02*
D03*
D11*
X502500Y312500D02*
D03*
Y437500D02*
D03*
X1825000Y450000D02*
D03*
Y325000D02*
D03*
D12*
X182500Y127500D02*
D03*
Y622500D02*
D03*
X2145000Y635000D02*
D03*
Y140000D02*
D03*
D13*
X1305000Y470000D02*
D03*
Y280000D02*
D03*
X1045000D02*
D03*
Y375000D02*
D03*
Y470000D02*
D03*
D20*
X1525000Y200000D02*
D03*
X950000Y375000D02*
D03*
X825000Y200000D02*
D03*
X645000Y312500D02*
D03*
X1975000Y450000D02*
D03*
%TF.MD5,84a9a5e7d444782b96e31f74b0eda4a0*%
M02*
